<svg width="17" height="18" viewBox="0 0 17 18" fill="none" xmlns="http://www.w3.org/2000/svg">
<path d="M13.459 17.683C13.9085 17.685 14.3563 17.6253 14.7905 17.505C15.2955 17.3604 15.7261 17.0208 15.9917 16.5582L16.8568 15.0871C17.1323 14.6188 16.9989 14.0116 16.554 13.709L13.113 11.3617C12.6765 11.0662 12.0912 11.1634 11.7682 11.5851L10.7659 12.9035C10.6371 13.077 10.4031 13.1276 10.2165 13.0217L10.0259 12.914C9.39385 12.5615 8.60739 12.1227 7.02317 10.5015C5.43863 8.88024 5.00904 8.07505 4.66445 7.42981L4.55987 7.23488C4.45497 7.04437 4.50344 6.80359 4.67308 6.67081L5.96083 5.6459C6.37282 5.31547 6.4681 4.71709 6.17961 4.27018L3.88529 0.750577C3.58949 0.295514 2.99624 0.158995 2.53844 0.440183L1.09963 1.3245C0.64747 1.59652 0.315821 2.03664 0.174065 2.55317C-0.344158 4.48447 0.0455877 7.81729 4.84538 12.7276C8.66316 16.6326 11.5056 17.683 13.459 17.683Z" fill="#00284F"/>
</svg>
